{"title":"Arj.Barker.Heavy.2013.WEBRip.x264-AUSHD","uid":15504378,"size":358789542,"categoryP":"video","categoryS":"movies","magnet":"?xt=urn:btih:913a3c9ccf5db23ce7215443742c3e17895d032e&amp;dn=Arj.Barker.Heavy.2013.WEBRip.x264-AUSHD&amp;tr=udp%3A%2F%2Ftracker.leechers-paradise.org%3A6969&amp;tr=udp%3A%2F%2Fzer0day.ch%3A1337&amp;tr=udp%3A%2F%2Fopen.demonii.com%3A1337&amp;tr=udp%3A%2F%2Ftracker.coppersurfer.tk%3A6969&amp;tr=udp%3A%2F%2Fexodus.desync.com%3A6969","seeders":1,"leechers":0,"uploader":"djflickit","files":1,"time":1470561491,"description":"Our Favourite Comic Adoptee is BackArmed only with a microphone and a harmonica, heavyweight US comic Arj Barker returns to Oz and tackles over seventeen of the heaviest topics around.\r\n\r\nFilmed at the historic Regal Theatre in Perth, this DVD is sure to weigh in as an instant classic as you watch Arj discover the lighter side of everything from ghosts to death, to ice cream, porno titles and even Thai ping pong balls. Need a lift? Then bend your knees and prepare for a tonne of funny.This is Heavy.\r\n\r\n\r\nGeneral\r\nFormat                      : MPEG-4\r\nFormat profile              : Base Media\r\nCodec ID                    : isom (isom/iso2/avc1/mp41)\r\nFile size                   : 342 MiB\r\nDuration                    : 1 h 18 min\r\nOverall bit rate mode       : Variable\r\nOverall bit rate            : 608 kb/s\r\nMovie name                  : Arj Barker: Heavy\r\nAlbum                       : Arj Barker: Heavy\r\nPart/Position               : 1\r\nPart/Total                  : 1\r\nTrack name/Position         : 1\r\nTrack name/Total            : 2\r\nPerformer                   : Arj Barker: Heavy\r\nGenre                       : Comedy\r\nRecorded date               : UTC 2013-11-06 08:00:00\r\nTagged date                 : UTC 2016-08-07 07:10:32\r\nCover                       : Yes\r\n\r\nVideo\r\nID                          : 2\r\nFormat                      : AVC\r\nFormat/Info                 : Advanced Video Codec\r\nFormat profile              :   \r\nFormat settings, CABAC      : No\r\nFormat settings, ReFrames   : 3 frames\r\nCodec ID                    : avc1\r\nCodec ID/Info               : Advanced Video Coding\r\nDuration                    : 1 h 18 min\r\nBit rate                    : 450 kb/s\r\nWidth                       : 640 pixels\r\nHeight                      : 360 pixels\r\nDisplay aspect ratio        : 16:9\r\nFrame rate mode             : Constant\r\nFrame rate                  : 25.000 FPS\r\nColor space                 : YUV\r\nChroma subsampling          : 4:2:0\r\nBit depth                   : 8 bits\r\nScan type                   : Progressive\r\nBits/(Pixel*Frame)          : 0.078\r\nStream size                 : 253 MiB (74%)\r\nWriting library             : x264 core 135\r\n\r\nAudio\r\nID                          : 1\r\nFormat                      : AAC\r\nFormat/Info                 : Advanced Audio Codec\r\nFormat profile              : LC\r\nCodec ID                    : 40\r\nDuration                    : 1 h 18 min\r\nBit rate mode               : Variable\r\nBit rate                    : 152 kb/s\r\nMaximum bit rate            : 205 kb/s\r\nChannel(s)                  : 2 channels\r\nChannel positions           : Front: L R\r\nSampling rate               : 44.1 kHz\r\nFrame rate                  : 43.066 FPS (1024 spf)\r\nCompression mode            : Lossy\r\nStream size                 : 85.6 MiB (25%)\r\nLanguage                    : English\r\nDefault                     : Yes\r\nAlternate group             : 1","torrent":{"xt":"urn:btih:913a3c9ccf5db23ce7215443742c3e17895d032e","amp;dn":"Arj.Barker.Heavy.2013.WEBRip.x264-AUSHD","amp;tr":["udp%3A%2F%2Ftracker.leechers-paradise.org%3A6969","udp%3A%2F%2Fzer0day.ch%3A1337","udp%3A%2F%2Fopen.demonii.com%3A1337","udp%3A%2F%2Ftracker.coppersurfer.tk%3A6969","udp%3A%2F%2Fexodus.desync.com%3A6969"],"infoHash":"913a3c9ccf5db23ce7215443742c3e17895d032e","infoHashBuffer":{"type":"Buffer","data":[145,58,60,156,207,93,178,60,231,33,84,67,116,44,62,23,137,93,3,46]},"announce":[],"urlList":[]}}